<svg xmlns="http://www.w3.org/2000/svg" viewBox="0 0 1090.00 460.00">
  <style>
    .key-bg { fill: #f5f5f5; stroke: #d4d4d4; stroke-width: 1; }
    .key-index { fill: #171717; font-family: ui-monospace, SFMono-Regular, "SF Mono", Menlo, Consolas, "Liberation Mono", monospace; font-weight: 700; text-anchor: middle; dominant-baseline: central; }
    .key-part { font-family: system-ui, -apple-system, BlinkMacSystemFont, "Segoe UI", Roboto, sans-serif; text-anchor: middle; dominant-baseline: central; }
    @media (prefers-color-scheme: dark) {
      .key-bg { fill: #2a2a2a; stroke: #404040; }
      .key-index { fill: #e5e5e5; }
    }
  </style>
  <g>
    <path class="key-bg" d="M 26.00,22.00 L 84.00,22.00 Q 88.00,22.00 88.00,26.00 L 88.00,84.00 Q 88.00,88.00 84.00,88.00 L 26.00,88.00 Q 22.00,88.00 22.00,84.00 L 22.00,26.00 Q 22.00,22.00 26.00,22.00 Z" />
    <path class="key-bg" d="M 96.00,22.00 L 154.00,22.00 Q 158.00,22.00 158.00,26.00 L 158.00,84.00 Q 158.00,88.00 154.00,88.00 L 96.00,88.00 Q 92.00,88.00 92.00,84.00 L 92.00,26.00 Q 92.00,22.00 96.00,22.00 Z" />
    <path class="key-bg" d="M 166.00,22.00 L 224.00,22.00 Q 228.00,22.00 228.00,26.00 L 228.00,84.00 Q 228.00,88.00 224.00,88.00 L 166.00,88.00 Q 162.00,88.00 162.00,84.00 L 162.00,26.00 Q 162.00,22.00 166.00,22.00 Z" />
    <path class="key-bg" d="M 236.00,22.00 L 294.00,22.00 Q 298.00,22.00 298.00,26.00 L 298.00,84.00 Q 298.00,88.00 294.00,88.00 L 236.00,88.00 Q 232.00,88.00 232.00,84.00 L 232.00,26.00 Q 232.00,22.00 236.00,22.00 Z" />
    <path class="key-bg" d="M 306.00,22.00 L 364.00,22.00 Q 368.00,22.00 368.00,26.00 L 368.00,84.00 Q 368.00,88.00 364.00,88.00 L 306.00,88.00 Q 302.00,88.00 302.00,84.00 L 302.00,26.00 Q 302.00,22.00 306.00,22.00 Z" />
    <path class="key-bg" d="M 376.00,22.00 L 434.00,22.00 Q 438.00,22.00 438.00,26.00 L 438.00,84.00 Q 438.00,88.00 434.00,88.00 L 376.00,88.00 Q 372.00,88.00 372.00,84.00 L 372.00,26.00 Q 372.00,22.00 376.00,22.00 Z" />
    <path class="key-bg" d="M 446.00,22.00 L 504.00,22.00 Q 508.00,22.00 508.00,26.00 L 508.00,84.00 Q 508.00,88.00 504.00,88.00 L 446.00,88.00 Q 442.00,88.00 442.00,84.00 L 442.00,26.00 Q 442.00,22.00 446.00,22.00 Z" />
    <path class="key-bg" d="M 516.00,22.00 L 574.00,22.00 Q 578.00,22.00 578.00,26.00 L 578.00,84.00 Q 578.00,88.00 574.00,88.00 L 516.00,88.00 Q 512.00,88.00 512.00,84.00 L 512.00,26.00 Q 512.00,22.00 516.00,22.00 Z" />
    <path class="key-bg" d="M 586.00,22.00 L 644.00,22.00 Q 648.00,22.00 648.00,26.00 L 648.00,84.00 Q 648.00,88.00 644.00,88.00 L 586.00,88.00 Q 582.00,88.00 582.00,84.00 L 582.00,26.00 Q 582.00,22.00 586.00,22.00 Z" />
    <path class="key-bg" d="M 656.00,22.00 L 714.00,22.00 Q 718.00,22.00 718.00,26.00 L 718.00,84.00 Q 718.00,88.00 714.00,88.00 L 656.00,88.00 Q 652.00,88.00 652.00,84.00 L 652.00,26.00 Q 652.00,22.00 656.00,22.00 Z" />
    <path class="key-bg" d="M 726.00,22.00 L 784.00,22.00 Q 788.00,22.00 788.00,26.00 L 788.00,84.00 Q 788.00,88.00 784.00,88.00 L 726.00,88.00 Q 722.00,88.00 722.00,84.00 L 722.00,26.00 Q 722.00,22.00 726.00,22.00 Z" />
    <path class="key-bg" d="M 796.00,22.00 L 854.00,22.00 Q 858.00,22.00 858.00,26.00 L 858.00,84.00 Q 858.00,88.00 854.00,88.00 L 796.00,88.00 Q 792.00,88.00 792.00,84.00 L 792.00,26.00 Q 792.00,22.00 796.00,22.00 Z" />
    <path class="key-bg" d="M 866.00,22.00 L 924.00,22.00 Q 928.00,22.00 928.00,26.00 L 928.00,84.00 Q 928.00,88.00 924.00,88.00 L 866.00,88.00 Q 862.00,88.00 862.00,84.00 L 862.00,26.00 Q 862.00,22.00 866.00,22.00 Z" />
    <path class="key-bg" d="M 936.00,22.00 L 994.00,22.00 Q 998.00,22.00 998.00,26.00 L 998.00,84.00 Q 998.00,88.00 994.00,88.00 L 936.00,88.00 Q 932.00,88.00 932.00,84.00 L 932.00,26.00 Q 932.00,22.00 936.00,22.00 Z" />
    <path class="key-bg" d="M 1006.00,22.00 L 1064.00,22.00 Q 1068.00,22.00 1068.00,26.00 L 1068.00,84.00 Q 1068.00,88.00 1064.00,88.00 L 1006.00,88.00 Q 1002.00,88.00 1002.00,84.00 L 1002.00,26.00 Q 1002.00,22.00 1006.00,22.00 Z" />
    <path class="key-bg" d="M 26.00,92.00 L 84.00,92.00 Q 88.00,92.00 88.00,96.00 L 88.00,154.00 Q 88.00,158.00 84.00,158.00 L 26.00,158.00 Q 22.00,158.00 22.00,154.00 L 22.00,96.00 Q 22.00,92.00 26.00,92.00 Z" />
    <path class="key-bg" d="M 96.00,92.00 L 154.00,92.00 Q 158.00,92.00 158.00,96.00 L 158.00,154.00 Q 158.00,158.00 154.00,158.00 L 96.00,158.00 Q 92.00,158.00 92.00,154.00 L 92.00,96.00 Q 92.00,92.00 96.00,92.00 Z" />
    <path class="key-bg" d="M 166.00,92.00 L 224.00,92.00 Q 228.00,92.00 228.00,96.00 L 228.00,154.00 Q 228.00,158.00 224.00,158.00 L 166.00,158.00 Q 162.00,158.00 162.00,154.00 L 162.00,96.00 Q 162.00,92.00 166.00,92.00 Z" />
    <path class="key-bg" d="M 236.00,92.00 L 294.00,92.00 Q 298.00,92.00 298.00,96.00 L 298.00,154.00 Q 298.00,158.00 294.00,158.00 L 236.00,158.00 Q 232.00,158.00 232.00,154.00 L 232.00,96.00 Q 232.00,92.00 236.00,92.00 Z" />
    <path class="key-bg" d="M 306.00,92.00 L 364.00,92.00 Q 368.00,92.00 368.00,96.00 L 368.00,154.00 Q 368.00,158.00 364.00,158.00 L 306.00,158.00 Q 302.00,158.00 302.00,154.00 L 302.00,96.00 Q 302.00,92.00 306.00,92.00 Z" />
    <path class="key-bg" d="M 376.00,92.00 L 434.00,92.00 Q 438.00,92.00 438.00,96.00 L 438.00,154.00 Q 438.00,158.00 434.00,158.00 L 376.00,158.00 Q 372.00,158.00 372.00,154.00 L 372.00,96.00 Q 372.00,92.00 376.00,92.00 Z" />
    <path class="key-bg" d="M 446.00,92.00 L 504.00,92.00 Q 508.00,92.00 508.00,96.00 L 508.00,154.00 Q 508.00,158.00 504.00,158.00 L 446.00,158.00 Q 442.00,158.00 442.00,154.00 L 442.00,96.00 Q 442.00,92.00 446.00,92.00 Z" />
    <path class="key-bg" d="M 516.00,92.00 L 574.00,92.00 Q 578.00,92.00 578.00,96.00 L 578.00,154.00 Q 578.00,158.00 574.00,158.00 L 516.00,158.00 Q 512.00,158.00 512.00,154.00 L 512.00,96.00 Q 512.00,92.00 516.00,92.00 Z" />
    <path class="key-bg" d="M 586.00,92.00 L 644.00,92.00 Q 648.00,92.00 648.00,96.00 L 648.00,154.00 Q 648.00,158.00 644.00,158.00 L 586.00,158.00 Q 582.00,158.00 582.00,154.00 L 582.00,96.00 Q 582.00,92.00 586.00,92.00 Z" />
    <path class="key-bg" d="M 656.00,92.00 L 714.00,92.00 Q 718.00,92.00 718.00,96.00 L 718.00,154.00 Q 718.00,158.00 714.00,158.00 L 656.00,158.00 Q 652.00,158.00 652.00,154.00 L 652.00,96.00 Q 652.00,92.00 656.00,92.00 Z" />
    <path class="key-bg" d="M 726.00,92.00 L 784.00,92.00 Q 788.00,92.00 788.00,96.00 L 788.00,154.00 Q 788.00,158.00 784.00,158.00 L 726.00,158.00 Q 722.00,158.00 722.00,154.00 L 722.00,96.00 Q 722.00,92.00 726.00,92.00 Z" />
    <path class="key-bg" d="M 796.00,92.00 L 854.00,92.00 Q 858.00,92.00 858.00,96.00 L 858.00,154.00 Q 858.00,158.00 854.00,158.00 L 796.00,158.00 Q 792.00,158.00 792.00,154.00 L 792.00,96.00 Q 792.00,92.00 796.00,92.00 Z" />
    <path class="key-bg" d="M 866.00,92.00 L 924.00,92.00 Q 928.00,92.00 928.00,96.00 L 928.00,154.00 Q 928.00,158.00 924.00,158.00 L 866.00,158.00 Q 862.00,158.00 862.00,154.00 L 862.00,96.00 Q 862.00,92.00 866.00,92.00 Z" />
    <path class="key-bg" d="M 936.00,92.00 L 1064.00,92.00 Q 1068.00,92.00 1068.00,96.00 L 1068.00,154.00 Q 1068.00,158.00 1064.00,158.00 L 936.00,158.00 Q 932.00,158.00 932.00,154.00 L 932.00,96.00 Q 932.00,92.00 936.00,92.00 Z" />
    <path class="key-bg" d="M 26.00,162.00 L 119.00,162.00 Q 123.00,162.00 123.00,166.00 L 123.00,224.00 Q 123.00,228.00 119.00,228.00 L 26.00,228.00 Q 22.00,228.00 22.00,224.00 L 22.00,166.00 Q 22.00,162.00 26.00,162.00 Z" />
    <path class="key-bg" d="M 131.00,162.00 L 189.00,162.00 Q 193.00,162.00 193.00,166.00 L 193.00,224.00 Q 193.00,228.00 189.00,228.00 L 131.00,228.00 Q 127.00,228.00 127.00,224.00 L 127.00,166.00 Q 127.00,162.00 131.00,162.00 Z" />
    <path class="key-bg" d="M 201.00,162.00 L 259.00,162.00 Q 263.00,162.00 263.00,166.00 L 263.00,224.00 Q 263.00,228.00 259.00,228.00 L 201.00,228.00 Q 197.00,228.00 197.00,224.00 L 197.00,166.00 Q 197.00,162.00 201.00,162.00 Z" />
    <path class="key-bg" d="M 271.00,162.00 L 329.00,162.00 Q 333.00,162.00 333.00,166.00 L 333.00,224.00 Q 333.00,228.00 329.00,228.00 L 271.00,228.00 Q 267.00,228.00 267.00,224.00 L 267.00,166.00 Q 267.00,162.00 271.00,162.00 Z" />
    <path class="key-bg" d="M 341.00,162.00 L 399.00,162.00 Q 403.00,162.00 403.00,166.00 L 403.00,224.00 Q 403.00,228.00 399.00,228.00 L 341.00,228.00 Q 337.00,228.00 337.00,224.00 L 337.00,166.00 Q 337.00,162.00 341.00,162.00 Z" />
    <path class="key-bg" d="M 411.00,162.00 L 469.00,162.00 Q 473.00,162.00 473.00,166.00 L 473.00,224.00 Q 473.00,228.00 469.00,228.00 L 411.00,228.00 Q 407.00,228.00 407.00,224.00 L 407.00,166.00 Q 407.00,162.00 411.00,162.00 Z" />
    <path class="key-bg" d="M 481.00,162.00 L 539.00,162.00 Q 543.00,162.00 543.00,166.00 L 543.00,224.00 Q 543.00,228.00 539.00,228.00 L 481.00,228.00 Q 477.00,228.00 477.00,224.00 L 477.00,166.00 Q 477.00,162.00 481.00,162.00 Z" />
    <path class="key-bg" d="M 551.00,162.00 L 609.00,162.00 Q 613.00,162.00 613.00,166.00 L 613.00,224.00 Q 613.00,228.00 609.00,228.00 L 551.00,228.00 Q 547.00,228.00 547.00,224.00 L 547.00,166.00 Q 547.00,162.00 551.00,162.00 Z" />
    <path class="key-bg" d="M 621.00,162.00 L 679.00,162.00 Q 683.00,162.00 683.00,166.00 L 683.00,224.00 Q 683.00,228.00 679.00,228.00 L 621.00,228.00 Q 617.00,228.00 617.00,224.00 L 617.00,166.00 Q 617.00,162.00 621.00,162.00 Z" />
    <path class="key-bg" d="M 691.00,162.00 L 749.00,162.00 Q 753.00,162.00 753.00,166.00 L 753.00,224.00 Q 753.00,228.00 749.00,228.00 L 691.00,228.00 Q 687.00,228.00 687.00,224.00 L 687.00,166.00 Q 687.00,162.00 691.00,162.00 Z" />
    <path class="key-bg" d="M 761.00,162.00 L 819.00,162.00 Q 823.00,162.00 823.00,166.00 L 823.00,224.00 Q 823.00,228.00 819.00,228.00 L 761.00,228.00 Q 757.00,228.00 757.00,224.00 L 757.00,166.00 Q 757.00,162.00 761.00,162.00 Z" />
    <path class="key-bg" d="M 831.00,162.00 L 889.00,162.00 Q 893.00,162.00 893.00,166.00 L 893.00,224.00 Q 893.00,228.00 889.00,228.00 L 831.00,228.00 Q 827.00,228.00 827.00,224.00 L 827.00,166.00 Q 827.00,162.00 831.00,162.00 Z" />
    <path class="key-bg" d="M 901.00,162.00 L 959.00,162.00 Q 963.00,162.00 963.00,166.00 L 963.00,224.00 Q 963.00,228.00 959.00,228.00 L 901.00,228.00 Q 897.00,228.00 897.00,224.00 L 897.00,166.00 Q 897.00,162.00 901.00,162.00 Z" />
    <path class="key-bg" d="M 971.00,162.00 L 1064.00,162.00 Q 1068.00,162.00 1068.00,166.00 L 1068.00,224.00 Q 1068.00,228.00 1064.00,228.00 L 971.00,228.00 Q 967.00,228.00 967.00,224.00 L 967.00,166.00 Q 967.00,162.00 971.00,162.00 Z" />
    <path class="key-bg" d="M 26.00,232.00 L 136.50,232.00 Q 140.50,232.00 140.50,236.00 L 140.50,294.00 Q 140.50,298.00 136.50,298.00 L 26.00,298.00 Q 22.00,298.00 22.00,294.00 L 22.00,236.00 Q 22.00,232.00 26.00,232.00 Z" />
    <path class="key-bg" d="M 148.50,232.00 L 206.50,232.00 Q 210.50,232.00 210.50,236.00 L 210.50,294.00 Q 210.50,298.00 206.50,298.00 L 148.50,298.00 Q 144.50,298.00 144.50,294.00 L 144.50,236.00 Q 144.50,232.00 148.50,232.00 Z" />
    <path class="key-bg" d="M 218.50,232.00 L 276.50,232.00 Q 280.50,232.00 280.50,236.00 L 280.50,294.00 Q 280.50,298.00 276.50,298.00 L 218.50,298.00 Q 214.50,298.00 214.50,294.00 L 214.50,236.00 Q 214.50,232.00 218.50,232.00 Z" />
    <path class="key-bg" d="M 288.50,232.00 L 346.50,232.00 Q 350.50,232.00 350.50,236.00 L 350.50,294.00 Q 350.50,298.00 346.50,298.00 L 288.50,298.00 Q 284.50,298.00 284.50,294.00 L 284.50,236.00 Q 284.50,232.00 288.50,232.00 Z" />
    <path class="key-bg" d="M 358.50,232.00 L 416.50,232.00 Q 420.50,232.00 420.50,236.00 L 420.50,294.00 Q 420.50,298.00 416.50,298.00 L 358.50,298.00 Q 354.50,298.00 354.50,294.00 L 354.50,236.00 Q 354.50,232.00 358.50,232.00 Z" />
    <path class="key-bg" d="M 428.50,232.00 L 486.50,232.00 Q 490.50,232.00 490.50,236.00 L 490.50,294.00 Q 490.50,298.00 486.50,298.00 L 428.50,298.00 Q 424.50,298.00 424.50,294.00 L 424.50,236.00 Q 424.50,232.00 428.50,232.00 Z" />
    <path class="key-bg" d="M 498.50,232.00 L 556.50,232.00 Q 560.50,232.00 560.50,236.00 L 560.50,294.00 Q 560.50,298.00 556.50,298.00 L 498.50,298.00 Q 494.50,298.00 494.50,294.00 L 494.50,236.00 Q 494.50,232.00 498.50,232.00 Z" />
    <path class="key-bg" d="M 568.50,232.00 L 626.50,232.00 Q 630.50,232.00 630.50,236.00 L 630.50,294.00 Q 630.50,298.00 626.50,298.00 L 568.50,298.00 Q 564.50,298.00 564.50,294.00 L 564.50,236.00 Q 564.50,232.00 568.50,232.00 Z" />
    <path class="key-bg" d="M 638.50,232.00 L 696.50,232.00 Q 700.50,232.00 700.50,236.00 L 700.50,294.00 Q 700.50,298.00 696.50,298.00 L 638.50,298.00 Q 634.50,298.00 634.50,294.00 L 634.50,236.00 Q 634.50,232.00 638.50,232.00 Z" />
    <path class="key-bg" d="M 708.50,232.00 L 766.50,232.00 Q 770.50,232.00 770.50,236.00 L 770.50,294.00 Q 770.50,298.00 766.50,298.00 L 708.50,298.00 Q 704.50,298.00 704.50,294.00 L 704.50,236.00 Q 704.50,232.00 708.50,232.00 Z" />
    <path class="key-bg" d="M 778.50,232.00 L 836.50,232.00 Q 840.50,232.00 840.50,236.00 L 840.50,294.00 Q 840.50,298.00 836.50,298.00 L 778.50,298.00 Q 774.50,298.00 774.50,294.00 L 774.50,236.00 Q 774.50,232.00 778.50,232.00 Z" />
    <path class="key-bg" d="M 848.50,232.00 L 906.50,232.00 Q 910.50,232.00 910.50,236.00 L 910.50,294.00 Q 910.50,298.00 906.50,298.00 L 848.50,298.00 Q 844.50,298.00 844.50,294.00 L 844.50,236.00 Q 844.50,232.00 848.50,232.00 Z" />
    <path class="key-bg" d="M 918.50,232.00 L 1064.00,232.00 Q 1068.00,232.00 1068.00,236.00 L 1068.00,294.00 Q 1068.00,298.00 1064.00,298.00 L 918.50,298.00 Q 914.50,298.00 914.50,294.00 L 914.50,236.00 Q 914.50,232.00 918.50,232.00 Z" />
    <path class="key-bg" d="M 26.00,302.00 L 154.00,302.00 Q 158.00,302.00 158.00,306.00 L 158.00,364.00 Q 158.00,368.00 154.00,368.00 L 26.00,368.00 Q 22.00,368.00 22.00,364.00 L 22.00,306.00 Q 22.00,302.00 26.00,302.00 Z" />
    <path class="key-bg" d="M 166.00,302.00 L 224.00,302.00 Q 228.00,302.00 228.00,306.00 L 228.00,364.00 Q 228.00,368.00 224.00,368.00 L 166.00,368.00 Q 162.00,368.00 162.00,364.00 L 162.00,306.00 Q 162.00,302.00 166.00,302.00 Z" />
    <path class="key-bg" d="M 236.00,302.00 L 294.00,302.00 Q 298.00,302.00 298.00,306.00 L 298.00,364.00 Q 298.00,368.00 294.00,368.00 L 236.00,368.00 Q 232.00,368.00 232.00,364.00 L 232.00,306.00 Q 232.00,302.00 236.00,302.00 Z" />
    <path class="key-bg" d="M 306.00,302.00 L 364.00,302.00 Q 368.00,302.00 368.00,306.00 L 368.00,364.00 Q 368.00,368.00 364.00,368.00 L 306.00,368.00 Q 302.00,368.00 302.00,364.00 L 302.00,306.00 Q 302.00,302.00 306.00,302.00 Z" />
    <path class="key-bg" d="M 376.00,302.00 L 434.00,302.00 Q 438.00,302.00 438.00,306.00 L 438.00,364.00 Q 438.00,368.00 434.00,368.00 L 376.00,368.00 Q 372.00,368.00 372.00,364.00 L 372.00,306.00 Q 372.00,302.00 376.00,302.00 Z" />
    <path class="key-bg" d="M 446.00,302.00 L 504.00,302.00 Q 508.00,302.00 508.00,306.00 L 508.00,364.00 Q 508.00,368.00 504.00,368.00 L 446.00,368.00 Q 442.00,368.00 442.00,364.00 L 442.00,306.00 Q 442.00,302.00 446.00,302.00 Z" />
    <path class="key-bg" d="M 516.00,302.00 L 574.00,302.00 Q 578.00,302.00 578.00,306.00 L 578.00,364.00 Q 578.00,368.00 574.00,368.00 L 516.00,368.00 Q 512.00,368.00 512.00,364.00 L 512.00,306.00 Q 512.00,302.00 516.00,302.00 Z" />
    <path class="key-bg" d="M 586.00,302.00 L 644.00,302.00 Q 648.00,302.00 648.00,306.00 L 648.00,364.00 Q 648.00,368.00 644.00,368.00 L 586.00,368.00 Q 582.00,368.00 582.00,364.00 L 582.00,306.00 Q 582.00,302.00 586.00,302.00 Z" />
    <path class="key-bg" d="M 656.00,302.00 L 714.00,302.00 Q 718.00,302.00 718.00,306.00 L 718.00,364.00 Q 718.00,368.00 714.00,368.00 L 656.00,368.00 Q 652.00,368.00 652.00,364.00 L 652.00,306.00 Q 652.00,302.00 656.00,302.00 Z" />
    <path class="key-bg" d="M 726.00,302.00 L 784.00,302.00 Q 788.00,302.00 788.00,306.00 L 788.00,364.00 Q 788.00,368.00 784.00,368.00 L 726.00,368.00 Q 722.00,368.00 722.00,364.00 L 722.00,306.00 Q 722.00,302.00 726.00,302.00 Z" />
    <path class="key-bg" d="M 796.00,302.00 L 854.00,302.00 Q 858.00,302.00 858.00,306.00 L 858.00,364.00 Q 858.00,368.00 854.00,368.00 L 796.00,368.00 Q 792.00,368.00 792.00,364.00 L 792.00,306.00 Q 792.00,302.00 796.00,302.00 Z" />
    <path class="key-bg" d="M 866.00,302.00 L 924.00,302.00 Q 928.00,302.00 928.00,306.00 L 928.00,364.00 Q 928.00,368.00 924.00,368.00 L 866.00,368.00 Q 862.00,368.00 862.00,364.00 L 862.00,306.00 Q 862.00,302.00 866.00,302.00 Z" />
    <path class="key-bg" d="M 936.00,302.00 L 994.00,302.00 Q 998.00,302.00 998.00,306.00 L 998.00,364.00 Q 998.00,368.00 994.00,368.00 L 936.00,368.00 Q 932.00,368.00 932.00,364.00 L 932.00,306.00 Q 932.00,302.00 936.00,302.00 Z" />
    <path class="key-bg" d="M 1006.00,302.00 L 1064.00,302.00 Q 1068.00,302.00 1068.00,306.00 L 1068.00,364.00 Q 1068.00,368.00 1064.00,368.00 L 1006.00,368.00 Q 1002.00,368.00 1002.00,364.00 L 1002.00,306.00 Q 1002.00,302.00 1006.00,302.00 Z" />
    <path class="key-bg" d="M 26.00,372.00 L 101.50,372.00 Q 105.50,372.00 105.50,376.00 L 105.50,434.00 Q 105.50,438.00 101.50,438.00 L 26.00,438.00 Q 22.00,438.00 22.00,434.00 L 22.00,376.00 Q 22.00,372.00 26.00,372.00 Z" />
    <path class="key-bg" d="M 113.50,372.00 L 189.00,372.00 Q 193.00,372.00 193.00,376.00 L 193.00,434.00 Q 193.00,438.00 189.00,438.00 L 113.50,438.00 Q 109.50,438.00 109.50,434.00 L 109.50,376.00 Q 109.50,372.00 113.50,372.00 Z" />
    <path class="key-bg" d="M 201.00,372.00 L 276.50,372.00 Q 280.50,372.00 280.50,376.00 L 280.50,434.00 Q 280.50,438.00 276.50,438.00 L 201.00,438.00 Q 197.00,438.00 197.00,434.00 L 197.00,376.00 Q 197.00,372.00 201.00,372.00 Z" />
    <path class="key-bg" d="M 288.50,372.00 L 714.00,372.00 Q 718.00,372.00 718.00,376.00 L 718.00,434.00 Q 718.00,438.00 714.00,438.00 L 288.50,438.00 Q 284.50,438.00 284.50,434.00 L 284.50,376.00 Q 284.50,372.00 288.50,372.00 Z" />
    <path class="key-bg" d="M 726.00,372.00 L 784.00,372.00 Q 788.00,372.00 788.00,376.00 L 788.00,434.00 Q 788.00,438.00 784.00,438.00 L 726.00,438.00 Q 722.00,438.00 722.00,434.00 L 722.00,376.00 Q 722.00,372.00 726.00,372.00 Z" />
    <path class="key-bg" d="M 796.00,372.00 L 854.00,372.00 Q 858.00,372.00 858.00,376.00 L 858.00,434.00 Q 858.00,438.00 854.00,438.00 L 796.00,438.00 Q 792.00,438.00 792.00,434.00 L 792.00,376.00 Q 792.00,372.00 796.00,372.00 Z" />
    <path class="key-bg" d="M 866.00,372.00 L 924.00,372.00 Q 928.00,372.00 928.00,376.00 L 928.00,434.00 Q 928.00,438.00 924.00,438.00 L 866.00,438.00 Q 862.00,438.00 862.00,434.00 L 862.00,376.00 Q 862.00,372.00 866.00,372.00 Z" />
    <path class="key-bg" d="M 936.00,372.00 L 994.00,372.00 Q 998.00,372.00 998.00,376.00 L 998.00,434.00 Q 998.00,438.00 994.00,438.00 L 936.00,438.00 Q 932.00,438.00 932.00,434.00 L 932.00,376.00 Q 932.00,372.00 936.00,372.00 Z" />
    <path class="key-bg" d="M 1006.00,372.00 L 1064.00,372.00 Q 1068.00,372.00 1068.00,376.00 L 1068.00,434.00 Q 1068.00,438.00 1064.00,438.00 L 1006.00,438.00 Q 1002.00,438.00 1002.00,434.00 L 1002.00,376.00 Q 1002.00,372.00 1006.00,372.00 Z" />
  </g>
  <g>
    <text class="key-index" x="55.00" y="55.00" font-size="36">0</text>
    <text class="key-index" x="125.00" y="55.00" font-size="36">1</text>
    <text class="key-index" x="195.00" y="55.00" font-size="36">2</text>
    <text class="key-index" x="265.00" y="55.00" font-size="36">3</text>
    <text class="key-index" x="335.00" y="55.00" font-size="36">4</text>
    <text class="key-index" x="405.00" y="55.00" font-size="36">5</text>
    <text class="key-index" x="475.00" y="55.00" font-size="36">6</text>
    <text class="key-index" x="545.00" y="55.00" font-size="36">7</text>
    <text class="key-index" x="615.00" y="55.00" font-size="36">8</text>
    <text class="key-index" x="685.00" y="55.00" font-size="36">9</text>
    <text class="key-index" x="755.00" y="55.00" font-size="36">10</text>
    <text class="key-index" x="825.00" y="55.00" font-size="36">11</text>
    <text class="key-index" x="895.00" y="55.00" font-size="36">12</text>
    <text class="key-index" x="965.00" y="55.00" font-size="36">13</text>
    <text class="key-index" x="1035.00" y="55.00" font-size="36">14</text>
    <text class="key-index" x="55.00" y="125.00" font-size="36">15</text>
    <text class="key-index" x="125.00" y="125.00" font-size="36">16</text>
    <text class="key-index" x="195.00" y="125.00" font-size="36">17</text>
    <text class="key-index" x="265.00" y="125.00" font-size="36">18</text>
    <text class="key-index" x="335.00" y="125.00" font-size="36">19</text>
    <text class="key-index" x="405.00" y="125.00" font-size="36">20</text>
    <text class="key-index" x="475.00" y="125.00" font-size="36">21</text>
    <text class="key-index" x="545.00" y="125.00" font-size="36">22</text>
    <text class="key-index" x="615.00" y="125.00" font-size="36">23</text>
    <text class="key-index" x="685.00" y="125.00" font-size="36">24</text>
    <text class="key-index" x="755.00" y="125.00" font-size="36">25</text>
    <text class="key-index" x="825.00" y="125.00" font-size="36">26</text>
    <text class="key-index" x="895.00" y="125.00" font-size="36">27</text>
    <text class="key-index" x="1000.00" y="125.00" font-size="36">28</text>
    <text class="key-index" x="72.50" y="195.00" font-size="36">29</text>
    <text class="key-index" x="160.00" y="195.00" font-size="36">30</text>
    <text class="key-index" x="230.00" y="195.00" font-size="36">31</text>
    <text class="key-index" x="300.00" y="195.00" font-size="36">32</text>
    <text class="key-index" x="370.00" y="195.00" font-size="36">33</text>
    <text class="key-index" x="440.00" y="195.00" font-size="36">34</text>
    <text class="key-index" x="510.00" y="195.00" font-size="36">35</text>
    <text class="key-index" x="580.00" y="195.00" font-size="36">36</text>
    <text class="key-index" x="650.00" y="195.00" font-size="36">37</text>
    <text class="key-index" x="720.00" y="195.00" font-size="36">38</text>
    <text class="key-index" x="790.00" y="195.00" font-size="36">39</text>
    <text class="key-index" x="860.00" y="195.00" font-size="36">40</text>
    <text class="key-index" x="930.00" y="195.00" font-size="36">41</text>
    <text class="key-index" x="1017.50" y="195.00" font-size="36">42</text>
    <text class="key-index" x="81.25" y="265.00" font-size="36">43</text>
    <text class="key-index" x="177.50" y="265.00" font-size="36">44</text>
    <text class="key-index" x="247.50" y="265.00" font-size="36">45</text>
    <text class="key-index" x="317.50" y="265.00" font-size="36">46</text>
    <text class="key-index" x="387.50" y="265.00" font-size="36">47</text>
    <text class="key-index" x="457.50" y="265.00" font-size="36">48</text>
    <text class="key-index" x="527.50" y="265.00" font-size="36">49</text>
    <text class="key-index" x="597.50" y="265.00" font-size="36">50</text>
    <text class="key-index" x="667.50" y="265.00" font-size="36">51</text>
    <text class="key-index" x="737.50" y="265.00" font-size="36">52</text>
    <text class="key-index" x="807.50" y="265.00" font-size="36">53</text>
    <text class="key-index" x="877.50" y="265.00" font-size="36">54</text>
    <text class="key-index" x="991.25" y="265.00" font-size="36">55</text>
    <text class="key-index" x="90.00" y="335.00" font-size="36">56</text>
    <text class="key-index" x="195.00" y="335.00" font-size="36">57</text>
    <text class="key-index" x="265.00" y="335.00" font-size="36">58</text>
    <text class="key-index" x="335.00" y="335.00" font-size="36">59</text>
    <text class="key-index" x="405.00" y="335.00" font-size="36">60</text>
    <text class="key-index" x="475.00" y="335.00" font-size="36">61</text>
    <text class="key-index" x="545.00" y="335.00" font-size="36">62</text>
    <text class="key-index" x="615.00" y="335.00" font-size="36">63</text>
    <text class="key-index" x="685.00" y="335.00" font-size="36">64</text>
    <text class="key-index" x="755.00" y="335.00" font-size="36">65</text>
    <text class="key-index" x="825.00" y="335.00" font-size="36">66</text>
    <text class="key-index" x="895.00" y="335.00" font-size="36">67</text>
    <text class="key-index" x="965.00" y="335.00" font-size="36">68</text>
    <text class="key-index" x="1035.00" y="335.00" font-size="36">69</text>
    <text class="key-index" x="63.75" y="405.00" font-size="36">70</text>
    <text class="key-index" x="151.25" y="405.00" font-size="36">71</text>
    <text class="key-index" x="238.75" y="405.00" font-size="36">72</text>
    <text class="key-index" x="501.25" y="405.00" font-size="36">73</text>
    <text class="key-index" x="755.00" y="405.00" font-size="36">74</text>
    <text class="key-index" x="825.00" y="405.00" font-size="36">75</text>
    <text class="key-index" x="895.00" y="405.00" font-size="36">76</text>
    <text class="key-index" x="965.00" y="405.00" font-size="36">77</text>
    <text class="key-index" x="1035.00" y="405.00" font-size="36">78</text>
  </g>
</svg>
